<svg xmlns="http://www.w3.org/2000/svg" width="720" height="420" viewBox="0 0 720 420">
  <defs>
    <linearGradient id="gold" x1="0" y1="0" x2="1" y2="1">
      <stop offset="0" stop-color="#7A003C" stop-opacity="0.55"/>
      <stop offset="1" stop-color="#F5F7FB" stop-opacity="0.25"/>
    </linearGradient>
    <linearGradient id="green" x1="0" y1="0" x2="1" y2="1">
      <stop offset="0" stop-color="#006341" stop-opacity="0.35"/>
      <stop offset="1" stop-color="#006341" stop-opacity="0.12"/>
    </linearGradient>
  </defs>
  <g opacity="0.9">
    <rect x="70" y="70" width="140" height="56" rx="12" fill="url(#gold)"/>
    <rect x="95" y="56" width="140" height="56" rx="12" fill="url(#gold)" opacity="0.75"/>
    <rect x="120" y="42" width="140" height="56" rx="12" fill="url(#gold)" opacity="0.55"/>
  </g>
  <g transform="translate(500,250)" opacity="0.85">
    <rect x="-90" y="0" width="180" height="90" rx="16" fill="url(#gold)"/>
    <path d="M-90 0c20-55 160-55 180 0" fill="url(#gold)" opacity="0.85"/>
    <rect x="-12" y="28" width="24" height="34" rx="8" fill="rgba(0,0,0,0.25)"/>
    <circle cx="0" cy="45" r="6" fill="rgba(255,255,255,0.25)"/>
  </g>
  <g transform="translate(320,210)" opacity="0.8">
    <circle cx="0" cy="0" r="60" fill="url(#green)"/>
    <path d="M0 -38v76" stroke="rgba(0,0,0,0.35)" stroke-width="8" stroke-linecap="round"/>
    <path d="M20 -24c0-16-14-24-30-24s-30 8-30 24 14 22 30 22 30 8 30 24-14 24-30 24-30-8-30-24" fill="none" stroke="rgba(0,0,0,0.35)" stroke-width="8" stroke-linecap="round"/>
  </g>
  <g transform="translate(160,300)" opacity="0.75">
    <ellipse cx="0" cy="26" rx="70" ry="18" fill="url(#gold)" opacity="0.45"/>
    <circle cx="-35" cy="0" r="18" fill="url(#gold)"/>
    <circle cx="0" cy="-8" r="22" fill="url(#gold)" opacity="0.85"/>
    <circle cx="35" cy="6" r="16" fill="url(#gold)" opacity="0.7"/>
  </g>
</svg>
