<?xml version="1.0" encoding="UTF-8"?>
<svg xmlns="http://www.w3.org/2000/svg" width="319" height="450" viewBox="0.0 0.0 319.0 450.95">
  <defs>
    <linearGradient id="goldGrad" x1="0" y1="0.0" x2="0" y2="311.0" gradientUnits="userSpaceOnUse">
      <stop offset="0%" stop-color="#FDF14F"/>
      <stop offset="55%" stop-color="#F8B11B"/>
      <stop offset="100%" stop-color="#E98264"/>
    </linearGradient>

    <linearGradient id="edgeGrad" x1="0.0" y1="0.0" x2="319.0" y2="311.0" gradientUnits="userSpaceOnUse">
      <stop offset="0%" stop-color="rgba(255,255,255,0.55)"/>
      <stop offset="35%" stop-color="rgba(242,218,135,0.55)"/>
      <stop offset="100%" stop-color="rgba(0,0,0,0.25)"/>
    </linearGradient>

    <linearGradient id="glossGrad" x1="0.0" y1="0.0" x2="0.0" y2="311.0" gradientUnits="userSpaceOnUse">
      <stop offset="0%" stop-color="rgba(255,255,255,0.55)"/>
      <stop offset="22%" stop-color="rgba(255,255,255,0.18)"/>
      <stop offset="55%" stop-color="rgba(255,255,255,0.00)"/>
    </linearGradient>

    <filter id="depthShadow" x="-30%" y="-30%" width="160%" height="170%">
      <feDropShadow dx="0" dy="10" stdDeviation="10" flood-color="#000000" flood-opacity="0.45"/>
      <feDropShadow dx="0" dy="22" stdDeviation="18" flood-color="#000000" flood-opacity="0.28"/>
    </filter>

    <filter id="innerShadow" x="-20%" y="-20%" width="140%" height="140%">
      <feOffset dx="0" dy="3" in="SourceAlpha" result="off"/>
      <feGaussianBlur in="off" stdDeviation="4" result="blur"/>
      <feComposite in="blur" in2="SourceAlpha" operator="out" result="inner"/>
      <feColorMatrix in="inner" type="matrix"
        values="0 0 0 0 0
                0 0 0 0 0
                0 0 0 0 0
                0 0 0 0.35 0" result="shadow"/>
      <feComposite in="SourceGraphic" in2="shadow" operator="over"/>
    </filter>

    <linearGradient id="fadeGrad" x1="0" y1="321.0" x2="0" y2="450.95000000000005" gradientUnits="userSpaceOnUse">
      <stop offset="0%" stop-color="white" stop-opacity="0.55"/>
      <stop offset="55%" stop-color="white" stop-opacity="0.18"/>
      <stop offset="100%" stop-color="white" stop-opacity="0"/>
    </linearGradient>
    <mask id="fadeMask">
      <rect x="-50.0" y="321.0" width="419.0" height="139.95000000000002" fill="url(#fadeGrad)"/>
    </mask>

    <radialGradient id="floorGlow" cx="50%" cy="50%" r="50%">
      <stop offset="0%" stop-color="rgba(47,229,157,0.20)"/>
      <stop offset="45%" stop-color="rgba(215,178,90,0.16)"/>
      <stop offset="100%" stop-color="rgba(0,0,0,0)"/>
    </radialGradient>
  </defs>

  <ellipse cx="159.5" cy="379.42" rx="108.46000000000001" ry="31.1" fill="url(#floorGlow)" opacity="0.9"/>

  <g filter="url(#depthShadow)">
    <path d="M 33.0 18.0 L 30.0 20.0 L 29.0 24.0 L 32.0 27.0 L 28.0 30.0 L 28.0 36.0 L 34.0 44.0 L 30.0 65.0 L 11.0 70.0 L 12.0 71.0 L 8.0 73.0 L 5.0 78.0 L 4.0 77.0 L 4.0 84.0 L 0.0 88.0 L 0.0 101.0 L 4.0 110.0 L 14.0 117.0 L 23.0 118.0 L 24.0 116.0 L 25.0 124.0 L 43.0 126.0 L 55.0 118.0 L 64.0 115.0 L 66.0 117.0 L 66.0 130.0 L 76.0 137.0 L 83.0 137.0 L 96.0 146.0 L 103.0 145.0 L 105.0 147.0 L 108.0 167.0 L 111.0 169.0 L 120.0 169.0 L 122.0 175.0 L 128.0 181.0 L 128.0 186.0 L 124.0 195.0 L 126.0 204.0 L 125.0 215.0 L 129.0 219.0 L 142.0 219.0 L 144.0 221.0 L 145.0 230.0 L 148.0 235.0 L 152.0 233.0 L 155.0 235.0 L 153.0 243.0 L 154.0 248.0 L 160.0 251.0 L 159.0 259.0 L 142.0 270.0 L 135.0 281.0 L 132.0 280.0 L 131.0 283.0 L 130.0 282.0 L 131.0 284.0 L 129.0 287.0 L 131.0 290.0 L 137.0 290.0 L 142.0 296.0 L 152.0 301.0 L 154.0 305.0 L 182.0 304.0 L 188.0 297.0 L 189.0 299.0 L 190.0 298.0 L 189.0 292.0 L 193.0 284.0 L 202.0 274.0 L 203.0 269.0 L 206.0 269.0 L 204.0 268.0 L 205.0 248.0 L 216.0 238.0 L 217.0 239.0 L 218.0 236.0 L 230.0 233.0 L 240.0 225.0 L 252.0 226.0 L 265.0 215.0 L 265.0 210.0 L 270.0 205.0 L 270.0 202.0 L 276.0 193.0 L 275.0 186.0 L 280.0 178.0 L 282.0 142.0 L 292.0 134.0 L 295.0 126.0 L 312.0 108.0 L 314.0 102.0 L 314.0 85.0 L 311.0 77.0 L 307.0 73.0 L 301.0 71.0 L 296.0 72.0 L 273.0 55.0 L 268.0 54.0 L 260.0 56.0 L 249.0 53.0 L 246.0 50.0 L 239.0 52.0 L 234.0 44.0 L 218.0 40.0 L 217.0 38.0 L 207.0 38.0 L 203.0 33.0 L 197.0 33.0 L 193.0 29.0 L 197.0 26.0 L 193.0 24.0 L 194.0 20.0 L 188.0 16.0 L 184.0 6.0 L 172.0 6.0 L 168.0 14.0 L 161.0 13.0 L 157.0 15.0 L 153.0 12.0 L 140.0 14.0 L 138.0 17.0 L 135.0 15.0 L 122.0 21.0 L 119.0 21.0 L 113.0 14.0 L 115.0 6.0 L 74.0 6.0 L 76.0 13.0 L 79.0 16.0 L 75.0 21.0 L 63.0 26.0 L 59.0 25.0 L 51.0 14.0 L 40.0 19.0 Z" fill="url(#goldGrad)" filter="url(#innerShadow)"/>
    <path d="M 33.0 18.0 L 30.0 20.0 L 29.0 24.0 L 32.0 27.0 L 28.0 30.0 L 28.0 36.0 L 34.0 44.0 L 30.0 65.0 L 11.0 70.0 L 12.0 71.0 L 8.0 73.0 L 5.0 78.0 L 4.0 77.0 L 4.0 84.0 L 0.0 88.0 L 0.0 101.0 L 4.0 110.0 L 14.0 117.0 L 23.0 118.0 L 24.0 116.0 L 25.0 124.0 L 43.0 126.0 L 55.0 118.0 L 64.0 115.0 L 66.0 117.0 L 66.0 130.0 L 76.0 137.0 L 83.0 137.0 L 96.0 146.0 L 103.0 145.0 L 105.0 147.0 L 108.0 167.0 L 111.0 169.0 L 120.0 169.0 L 122.0 175.0 L 128.0 181.0 L 128.0 186.0 L 124.0 195.0 L 126.0 204.0 L 125.0 215.0 L 129.0 219.0 L 142.0 219.0 L 144.0 221.0 L 145.0 230.0 L 148.0 235.0 L 152.0 233.0 L 155.0 235.0 L 153.0 243.0 L 154.0 248.0 L 160.0 251.0 L 159.0 259.0 L 142.0 270.0 L 135.0 281.0 L 132.0 280.0 L 131.0 283.0 L 130.0 282.0 L 131.0 284.0 L 129.0 287.0 L 131.0 290.0 L 137.0 290.0 L 142.0 296.0 L 152.0 301.0 L 154.0 305.0 L 182.0 304.0 L 188.0 297.0 L 189.0 299.0 L 190.0 298.0 L 189.0 292.0 L 193.0 284.0 L 202.0 274.0 L 203.0 269.0 L 206.0 269.0 L 204.0 268.0 L 205.0 248.0 L 216.0 238.0 L 217.0 239.0 L 218.0 236.0 L 230.0 233.0 L 240.0 225.0 L 252.0 226.0 L 265.0 215.0 L 265.0 210.0 L 270.0 205.0 L 270.0 202.0 L 276.0 193.0 L 275.0 186.0 L 280.0 178.0 L 282.0 142.0 L 292.0 134.0 L 295.0 126.0 L 312.0 108.0 L 314.0 102.0 L 314.0 85.0 L 311.0 77.0 L 307.0 73.0 L 301.0 71.0 L 296.0 72.0 L 273.0 55.0 L 268.0 54.0 L 260.0 56.0 L 249.0 53.0 L 246.0 50.0 L 239.0 52.0 L 234.0 44.0 L 218.0 40.0 L 217.0 38.0 L 207.0 38.0 L 203.0 33.0 L 197.0 33.0 L 193.0 29.0 L 197.0 26.0 L 193.0 24.0 L 194.0 20.0 L 188.0 16.0 L 184.0 6.0 L 172.0 6.0 L 168.0 14.0 L 161.0 13.0 L 157.0 15.0 L 153.0 12.0 L 140.0 14.0 L 138.0 17.0 L 135.0 15.0 L 122.0 21.0 L 119.0 21.0 L 113.0 14.0 L 115.0 6.0 L 74.0 6.0 L 76.0 13.0 L 79.0 16.0 L 75.0 21.0 L 63.0 26.0 L 59.0 25.0 L 51.0 14.0 L 40.0 19.0 Z" fill="url(#glossGrad)" opacity="0.75"/>
    <path d="M 33.0 18.0 L 30.0 20.0 L 29.0 24.0 L 32.0 27.0 L 28.0 30.0 L 28.0 36.0 L 34.0 44.0 L 30.0 65.0 L 11.0 70.0 L 12.0 71.0 L 8.0 73.0 L 5.0 78.0 L 4.0 77.0 L 4.0 84.0 L 0.0 88.0 L 0.0 101.0 L 4.0 110.0 L 14.0 117.0 L 23.0 118.0 L 24.0 116.0 L 25.0 124.0 L 43.0 126.0 L 55.0 118.0 L 64.0 115.0 L 66.0 117.0 L 66.0 130.0 L 76.0 137.0 L 83.0 137.0 L 96.0 146.0 L 103.0 145.0 L 105.0 147.0 L 108.0 167.0 L 111.0 169.0 L 120.0 169.0 L 122.0 175.0 L 128.0 181.0 L 128.0 186.0 L 124.0 195.0 L 126.0 204.0 L 125.0 215.0 L 129.0 219.0 L 142.0 219.0 L 144.0 221.0 L 145.0 230.0 L 148.0 235.0 L 152.0 233.0 L 155.0 235.0 L 153.0 243.0 L 154.0 248.0 L 160.0 251.0 L 159.0 259.0 L 142.0 270.0 L 135.0 281.0 L 132.0 280.0 L 131.0 283.0 L 130.0 282.0 L 131.0 284.0 L 129.0 287.0 L 131.0 290.0 L 137.0 290.0 L 142.0 296.0 L 152.0 301.0 L 154.0 305.0 L 182.0 304.0 L 188.0 297.0 L 189.0 299.0 L 190.0 298.0 L 189.0 292.0 L 193.0 284.0 L 202.0 274.0 L 203.0 269.0 L 206.0 269.0 L 204.0 268.0 L 205.0 248.0 L 216.0 238.0 L 217.0 239.0 L 218.0 236.0 L 230.0 233.0 L 240.0 225.0 L 252.0 226.0 L 265.0 215.0 L 265.0 210.0 L 270.0 205.0 L 270.0 202.0 L 276.0 193.0 L 275.0 186.0 L 280.0 178.0 L 282.0 142.0 L 292.0 134.0 L 295.0 126.0 L 312.0 108.0 L 314.0 102.0 L 314.0 85.0 L 311.0 77.0 L 307.0 73.0 L 301.0 71.0 L 296.0 72.0 L 273.0 55.0 L 268.0 54.0 L 260.0 56.0 L 249.0 53.0 L 246.0 50.0 L 239.0 52.0 L 234.0 44.0 L 218.0 40.0 L 217.0 38.0 L 207.0 38.0 L 203.0 33.0 L 197.0 33.0 L 193.0 29.0 L 197.0 26.0 L 193.0 24.0 L 194.0 20.0 L 188.0 16.0 L 184.0 6.0 L 172.0 6.0 L 168.0 14.0 L 161.0 13.0 L 157.0 15.0 L 153.0 12.0 L 140.0 14.0 L 138.0 17.0 L 135.0 15.0 L 122.0 21.0 L 119.0 21.0 L 113.0 14.0 L 115.0 6.0 L 74.0 6.0 L 76.0 13.0 L 79.0 16.0 L 75.0 21.0 L 63.0 26.0 L 59.0 25.0 L 51.0 14.0 L 40.0 19.0 Z" fill="none" stroke="url(#edgeGrad)" stroke-width="2" opacity="0.55"/>
  </g>

  <g opacity="0.35" mask="url(#fadeMask)">
    <g transform="translate(0 642.0) scale(1 -1)">
      <path d="M 33.0 18.0 L 30.0 20.0 L 29.0 24.0 L 32.0 27.0 L 28.0 30.0 L 28.0 36.0 L 34.0 44.0 L 30.0 65.0 L 11.0 70.0 L 12.0 71.0 L 8.0 73.0 L 5.0 78.0 L 4.0 77.0 L 4.0 84.0 L 0.0 88.0 L 0.0 101.0 L 4.0 110.0 L 14.0 117.0 L 23.0 118.0 L 24.0 116.0 L 25.0 124.0 L 43.0 126.0 L 55.0 118.0 L 64.0 115.0 L 66.0 117.0 L 66.0 130.0 L 76.0 137.0 L 83.0 137.0 L 96.0 146.0 L 103.0 145.0 L 105.0 147.0 L 108.0 167.0 L 111.0 169.0 L 120.0 169.0 L 122.0 175.0 L 128.0 181.0 L 128.0 186.0 L 124.0 195.0 L 126.0 204.0 L 125.0 215.0 L 129.0 219.0 L 142.0 219.0 L 144.0 221.0 L 145.0 230.0 L 148.0 235.0 L 152.0 233.0 L 155.0 235.0 L 153.0 243.0 L 154.0 248.0 L 160.0 251.0 L 159.0 259.0 L 142.0 270.0 L 135.0 281.0 L 132.0 280.0 L 131.0 283.0 L 130.0 282.0 L 131.0 284.0 L 129.0 287.0 L 131.0 290.0 L 137.0 290.0 L 142.0 296.0 L 152.0 301.0 L 154.0 305.0 L 182.0 304.0 L 188.0 297.0 L 189.0 299.0 L 190.0 298.0 L 189.0 292.0 L 193.0 284.0 L 202.0 274.0 L 203.0 269.0 L 206.0 269.0 L 204.0 268.0 L 205.0 248.0 L 216.0 238.0 L 217.0 239.0 L 218.0 236.0 L 230.0 233.0 L 240.0 225.0 L 252.0 226.0 L 265.0 215.0 L 265.0 210.0 L 270.0 205.0 L 270.0 202.0 L 276.0 193.0 L 275.0 186.0 L 280.0 178.0 L 282.0 142.0 L 292.0 134.0 L 295.0 126.0 L 312.0 108.0 L 314.0 102.0 L 314.0 85.0 L 311.0 77.0 L 307.0 73.0 L 301.0 71.0 L 296.0 72.0 L 273.0 55.0 L 268.0 54.0 L 260.0 56.0 L 249.0 53.0 L 246.0 50.0 L 239.0 52.0 L 234.0 44.0 L 218.0 40.0 L 217.0 38.0 L 207.0 38.0 L 203.0 33.0 L 197.0 33.0 L 193.0 29.0 L 197.0 26.0 L 193.0 24.0 L 194.0 20.0 L 188.0 16.0 L 184.0 6.0 L 172.0 6.0 L 168.0 14.0 L 161.0 13.0 L 157.0 15.0 L 153.0 12.0 L 140.0 14.0 L 138.0 17.0 L 135.0 15.0 L 122.0 21.0 L 119.0 21.0 L 113.0 14.0 L 115.0 6.0 L 74.0 6.0 L 76.0 13.0 L 79.0 16.0 L 75.0 21.0 L 63.0 26.0 L 59.0 25.0 L 51.0 14.0 L 40.0 19.0 Z" fill="url(#goldGrad)"/>
      <path d="M 33.0 18.0 L 30.0 20.0 L 29.0 24.0 L 32.0 27.0 L 28.0 30.0 L 28.0 36.0 L 34.0 44.0 L 30.0 65.0 L 11.0 70.0 L 12.0 71.0 L 8.0 73.0 L 5.0 78.0 L 4.0 77.0 L 4.0 84.0 L 0.0 88.0 L 0.0 101.0 L 4.0 110.0 L 14.0 117.0 L 23.0 118.0 L 24.0 116.0 L 25.0 124.0 L 43.0 126.0 L 55.0 118.0 L 64.0 115.0 L 66.0 117.0 L 66.0 130.0 L 76.0 137.0 L 83.0 137.0 L 96.0 146.0 L 103.0 145.0 L 105.0 147.0 L 108.0 167.0 L 111.0 169.0 L 120.0 169.0 L 122.0 175.0 L 128.0 181.0 L 128.0 186.0 L 124.0 195.0 L 126.0 204.0 L 125.0 215.0 L 129.0 219.0 L 142.0 219.0 L 144.0 221.0 L 145.0 230.0 L 148.0 235.0 L 152.0 233.0 L 155.0 235.0 L 153.0 243.0 L 154.0 248.0 L 160.0 251.0 L 159.0 259.0 L 142.0 270.0 L 135.0 281.0 L 132.0 280.0 L 131.0 283.0 L 130.0 282.0 L 131.0 284.0 L 129.0 287.0 L 131.0 290.0 L 137.0 290.0 L 142.0 296.0 L 152.0 301.0 L 154.0 305.0 L 182.0 304.0 L 188.0 297.0 L 189.0 299.0 L 190.0 298.0 L 189.0 292.0 L 193.0 284.0 L 202.0 274.0 L 203.0 269.0 L 206.0 269.0 L 204.0 268.0 L 205.0 248.0 L 216.0 238.0 L 217.0 239.0 L 218.0 236.0 L 230.0 233.0 L 240.0 225.0 L 252.0 226.0 L 265.0 215.0 L 265.0 210.0 L 270.0 205.0 L 270.0 202.0 L 276.0 193.0 L 275.0 186.0 L 280.0 178.0 L 282.0 142.0 L 292.0 134.0 L 295.0 126.0 L 312.0 108.0 L 314.0 102.0 L 314.0 85.0 L 311.0 77.0 L 307.0 73.0 L 301.0 71.0 L 296.0 72.0 L 273.0 55.0 L 268.0 54.0 L 260.0 56.0 L 249.0 53.0 L 246.0 50.0 L 239.0 52.0 L 234.0 44.0 L 218.0 40.0 L 217.0 38.0 L 207.0 38.0 L 203.0 33.0 L 197.0 33.0 L 193.0 29.0 L 197.0 26.0 L 193.0 24.0 L 194.0 20.0 L 188.0 16.0 L 184.0 6.0 L 172.0 6.0 L 168.0 14.0 L 161.0 13.0 L 157.0 15.0 L 153.0 12.0 L 140.0 14.0 L 138.0 17.0 L 135.0 15.0 L 122.0 21.0 L 119.0 21.0 L 113.0 14.0 L 115.0 6.0 L 74.0 6.0 L 76.0 13.0 L 79.0 16.0 L 75.0 21.0 L 63.0 26.0 L 59.0 25.0 L 51.0 14.0 L 40.0 19.0 Z" fill="url(#glossGrad)" opacity="0.45"/>
    </g>
  </g>
</svg>
