<svg xmlns="http://www.w3.org/2000/svg" width="46" height="46" viewBox="0 0 64 64">
  <defs>
    <linearGradient id="g" x1="0" y1="0" x2="1" y2="1">
      <stop offset="0" stop-color="#7A003C" stop-opacity="0.95"/>
      <stop offset="0.55" stop-color="#F5F7FB" stop-opacity="0.95"/>
      <stop offset="1" stop-color="#006341" stop-opacity="0.95"/>
    </linearGradient>
    <filter id="s" x="-20%" y="-20%" width="140%" height="140%">
      <feDropShadow dx="0" dy="6" stdDeviation="6" flood-color="#000" flood-opacity="0.55"/>
    </filter>
  </defs>
  <rect x="4" y="4" width="56" height="56" rx="18" fill="rgba(0,0,0,0.35)" stroke="rgba(255,255,255,0.18)"/>
  <g filter="url(#s)">
    <path d="M26 18c4 3 8 3 12 0 1 3 3 5 6 7-4 2-6 5-6 9v2c0 8-4 14-12 14s-12-6-12-14v-2c0-4-2-7-6-9 3-2 5-4 6-7z" fill="url(#g)" opacity="0.95"/>
    <path d="M24 18c5 3 11 3 16 0" stroke="rgba(0,0,0,0.35)" stroke-width="2" stroke-linecap="round"/>
    <path d="M23 27h18" stroke="rgba(0,0,0,0.35)" stroke-width="3" stroke-linecap="round"/>
    <path d="M32 30v18" stroke="#0b0f14" stroke-width="3" stroke-linecap="round"/>
    <path d="M36 33c0-2-2-3.5-4-3.5s-4 1.1-4 3.5 2 3 4 3 4 1 4 3.5-2 3.5-4 3.5-4-1.2-4-3.5" fill="none" stroke="#0b0f14" stroke-width="3" stroke-linecap="round"/>
  </g>
</svg>
